<svg width="16" height="16" viewBox="0 0 16 16" fill="none" xmlns="http://www.w3.org/2000/svg">
<path d="M8.31055 13.9998C8.31055 12.9918 8.49455 12.0638 8.86255 11.2158C9.23055 10.3518 9.72655 9.67177 10.3505 9.17577C10.9905 8.67977 11.6785 8.43177 12.4145 8.43177V7.32777C11.6785 7.32777 10.9905 7.07977 10.3505 6.58377C9.72655 6.08777 9.23055 5.41577 8.86255 4.56777C8.49455 3.70377 8.31055 2.76777 8.31055 1.75977H9.94255C9.94255 2.73577 10.1505 3.63177 10.5665 4.44777C10.9825 5.24777 11.5505 5.88777 12.2705 6.36777C12.9905 6.84777 13.7745 7.08777 14.6225 7.08777V8.67177C13.7745 8.67177 12.9905 8.91177 12.2705 9.39177C11.5505 9.87177 10.9825 10.5198 10.5665 11.3358C10.1505 12.1358 9.94255 13.0238 9.94255 13.9998H8.31055Z" fill="#EB443A"/>
<path d="M2 13.9998C2 12.9918 2.184 12.0638 2.552 11.2158C2.92 10.3518 3.416 9.67177 4.04 9.17577C4.68 8.67977 5.368 8.43177 6.104 8.43177V7.32777C5.368 7.32777 4.68 7.07977 4.04 6.58377C3.416 6.08777 2.92 5.41577 2.552 4.56777C2.184 3.70377 2 2.76777 2 1.75977H3.632C3.632 2.73577 3.84 3.63177 4.256 4.44777C4.672 5.24777 5.24 5.88777 5.96 6.36777C6.68 6.84777 7.464 7.08777 8.312 7.08777V8.67177C7.464 8.67177 6.68 8.91177 5.96 9.39177C5.24 9.87177 4.672 10.5198 4.256 11.3358C3.84 12.1358 3.632 13.0238 3.632 13.9998H2Z" fill="#EB443A"/>
</svg>