<svg width="64" height="13" viewBox="0 0 64 13" fill="none" xmlns="http://www.w3.org/2000/svg">
<path fill-rule="evenodd" clip-rule="evenodd" d="M0 8L-7.62939e-06 8.71396L61.4383 8.71396C61.2175 8.80524 61.0034 8.93124 60.796 9.09196C60.328 9.46396 59.956 9.96796 59.68 10.604C59.404 11.252 59.266 11.954 59.266 12.71L60.49 12.71C60.49 11.978 60.646 11.306 60.958 10.694C61.27 10.094 61.696 9.61396 62.236 9.25396C62.776 8.89396 63.364 8.71396 64 8.71396V7.52596C63.364 7.52596 62.776 7.34596 62.236 6.98596C61.696 6.62596 61.27 6.13996 60.958 5.52796C60.646 4.92796 60.49 4.26196 60.49 3.52996H59.266C59.266 4.28596 59.404 4.98196 59.68 5.61796C59.956 6.26596 60.328 6.77596 60.796 7.14796C61.0034 7.30868 61.2175 7.43468 61.4383 7.52596L1 7.52596V0H0L-7.62939e-06 7.52596L0 8Z" fill="#EB443A"/>
</svg>
