<svg width="64" height="13" viewBox="0 0 64 13" fill="none" xmlns="http://www.w3.org/2000/svg">
<path fill-rule="evenodd" clip-rule="evenodd" d="M64 8V8.71396L2.5617 8.71396C2.78251 8.80524 2.99661 8.93124 3.20399 9.09196C3.67199 9.46396 4.04399 9.96796 4.31999 10.604C4.59599 11.252 4.73399 11.954 4.73399 12.71L3.50999 12.71C3.50999 11.978 3.35399 11.306 3.04199 10.694C2.72999 10.094 2.30399 9.61396 1.76399 9.25396C1.22399 8.89396 0.635999 8.71396 0 8.71396V7.52596C0.635999 7.52596 1.22399 7.34596 1.76399 6.98596C2.30399 6.62596 2.72999 6.13996 3.04199 5.52796C3.35399 4.92796 3.51 4.26196 3.51 3.52996H4.73399C4.73399 4.28596 4.59599 4.98196 4.31999 5.61796C4.04399 6.26596 3.67199 6.77596 3.20399 7.14796C2.99661 7.30868 2.78251 7.43468 2.5617 7.52596L63 7.52596V0H64V7.52596V8Z" fill="#EB443A"/>
</svg>
